<?xml version="1.0" encoding="UTF-8"?>
<svg id="Layer_1" data-name="Layer 1" xmlns="http://www.w3.org/2000/svg" viewBox="0 0 306.66 323.71">
  <defs>
    <style>
      .cls-1 {
        fill: #f54d42;
      }

      .cls-1, .cls-2, .cls-3 {
        stroke-width: 0px;
      }

      .cls-2 {
        fill: #9664fe;
      }

      .cls-3 {
        fill: #ffcc24;
      }
    </style>
  </defs>
  <path class="cls-1" d="m168.57,60.94l-64.54,64.54-21.55-21.55-21.54,21.54,21.54,21.54c11.9,11.9,31.2,11.9,43.11,0l64.54-64.54-21.55-21.54Z"/>
  <path class="cls-2" d="m67.05,201.83l88.17,23.62-7.89,29.43,29.43,7.89,7.88-29.42c4.36-16.26-5.29-32.97-21.55-37.33l-88.16-23.62-7.88,29.43Z"/>
  <path class="cls-3" d="m239.91,219.53l-23.63-88.17,29.43-7.89-7.88-29.43-29.42,7.88c-16.26,4.36-25.91,21.07-21.55,37.33l23.62,88.16,29.42-7.89Z"/>
</svg>